HIERARCHY
ROOT Hips
{
	OFFSET 0.00000 0.00000 0.00000
	CHANNELS 6 Xposition Yposition Zposition Yrotation Zrotation Xrotation 
	JOINT Lumbar
	{
		OFFSET 0 0 0
		CHANNELS 3 Zrotation Xrotation Yrotation
		JOINT Neck
		{
			OFFSET 0.00 0.2701 0.00
			CHANNELS 3 Zrotation Xrotation Yrotation
			End Site
			{
				OFFSET 0.00 0.1379 0.00
			}
		}
		JOINT RightShoulder
		{
			OFFSET 0.0119 0.2289 0.1181
			CHANNELS 3 Zrotation Xrotation Yrotation
			JOINT RightElbow
			{
				OFFSET 0.00 -0.1475 0.00
				CHANNELS 2 Zrotation Yrotation
				JOINT RightWrist
				{
					OFFSET 0.00 -0.1605 0.00
					CHANNELS 2 Zrotation Xrotation
					End Site
					{
						OFFSET 0.0040 -0.1068 0.0006
					}
				}
			}
		}
		JOINT LeftShoulder
		{
			OFFSET 0.0119 0.2289 -0.1181
			CHANNELS 3 Zrotation Xrotation Yrotation
			JOINT LeftElbow
			{
				OFFSET 0.00 -0.1475 0.00
				CHANNELS 2 Zrotation Yrotation
				JOINT LeftWrist
				{
					OFFSET 0.00 -0.1605 0.00
					CHANNELS 2 Zrotation Xrotation
					End Site
					{
						OFFSET 0.0040 -0.1068 -0.0006
					}
				}
			}
		}
	}
	JOINT RightHip
	{
		OFFSET 0.0316 -0.0424 0.0458
		CHANNELS 3 Zrotation Xrotation Yrotation
		JOINT RightKnee
		{
			OFFSET 0.00 -0.2438 0.00
			CHANNELS 1 Zrotation
			JOINT RightAnkle
			{
				OFFSET 0.00 -0.2449 0.00
				CHANNELS 3 Zrotation Xrotation Yrotation
				End Site
				{
					OFFSET 0.1237 -0.0542 0.0051
				}
			}
		}
	}
	JOINT LeftHip
	{
		OFFSET 0.0316 -0.0424 -0.0458
		CHANNELS 3 Zrotation Xrotation Yrotation
		JOINT LeftKnee
		{
			OFFSET 0.00 -0.2438 0.00
			CHANNELS 1 Zrotation
			JOINT LeftAnkle
			{
				OFFSET 0.00 -0.2449 0.00
				CHANNELS 3 Zrotation Xrotation Yrotation
				End Site
				{
					OFFSET 0.1237 -0.0542 -0.0051
				}
			}
		}
	}
}
MOTION
Frames: 26
Frame Time: 0.02
-0 0.57926 0 183.26751 0 -5.66228 7.75504 6.46618 -1.80727 -15.97683 2.60969 -0.43326 9.77058 -16.48405 6.33956 8.22509 83.21056 -0.603 -2.55043 6.15843 11.36574 -10.8114 8.03655 -79.42034 -3.13327 1.91439 -4.01641 7.16289 -2.1737 -6.07011 -11.56959 -2.49621 -8.67662 -8.11619 6.47354 18.46463 -1.56178 -4.9261 3.23871 6.33352
0.00013 0.57928 -9e-05 183.28507 0 -5.66153 7.75945 6.43269 -1.80974 -16.30333 2.58444 -0.45325 10.18589 -16.48672 6.38751 8.27577 83.10772 -0.61932 -2.58146 6.72857 11.38292 -11.06877 8.0963 -79.4211 -3.14177 1.94316 -3.96791 7.17175 -2.16468 -6.14264 -11.56666 -2.50474 -8.71564 -8.10288 6.48236 18.43725 -1.55669 -4.94791 3.23658 6.34481
0.00025 0.5793 -0.00019 183.30205 0 -5.66077 7.76391 6.39922 -1.81212 -16.63244 2.55974 -0.47278 10.60517 -16.48996 6.43737 8.3267 83.00501 -0.63557 -2.61278 7.30238 11.3997 -11.32704 8.15639 -79.42171 -3.15048 1.97232 -3.91917 7.18067 -2.15517 -6.21532 -11.56374 -2.51321 -8.75479 -8.08956 6.4912 18.41032 -1.55164 -4.96979 3.23446 6.35602
0.00038 0.57932 -0.00029 183.31699 0 -5.65999 7.76888 6.36556 -1.8142 -16.96799 2.5371 -0.49057 11.03499 -16.49547 6.49325 8.37858 82.90281 -0.65165 -2.64517 7.88696 11.41458 -11.58823 8.21762 -79.42113 -3.15983 2.00272 -3.86966 7.18977 -2.14357 -6.2887 -11.56096 -2.52175 -8.79491 -8.07655 6.49999 18.38536 -1.54637 -4.99207 3.23236 6.36669
0.0005 0.57934 -0.00037 183.34288 0 -5.65935 7.77151 6.33295 -1.81791 -17.26076 2.50363 -0.51748 11.39767 -16.48893 6.51467 8.42478 82.79909 -0.66855 -2.6714 8.40303 11.43898 -11.83011 8.27181 -79.42615 -3.16548 2.0258 -3.82504 7.19778 -2.14302 -6.35764 -11.55761 -2.53018 -8.82997 -8.06247 6.50877 18.35046 -1.54185 -5.01216 3.23013 6.37983
0.00064 0.57936 -0.00049 183.34549 0 -5.65839 7.77886 6.29815 -1.81817 -17.64957 2.49305 -0.52514 11.90966 -16.5079 6.6107 8.48342 82.69788 -0.68376 -2.71098 9.07127 11.4436 -12.11519 8.34152 -79.4198 -3.17916 2.06486 -3.76959 7.20819 -2.11912 -6.43637 -11.55536 -2.53868 -8.87565 -8.05029 6.51774 18.33627 -1.53601 -5.03691 3.22819 6.38802
0.00085 0.57939 -0.00069 183.28212 0 -5.65655 7.8014 6.25602 -1.80866 -18.27538 2.54796 -0.47715 12.79921 -16.60027 6.90885 8.57547 82.60819 -0.69401 -2.7872 10.12876 11.38866 -12.51043 8.45214 -79.37666 -3.21431 2.14658 -3.68584 7.22491 -2.02719 -6.54147 -11.55708 -2.549 -8.95364 -8.04629 6.52605 18.38415 -1.52421 -5.07526 3.22697 6.37983
0.00108 0.57943 -0.00093 183.19539 0 -5.65435 7.82816 6.21191 -1.79575 -19.00406 2.62549 -0.41005 13.84688 -16.71788 7.28349 8.68043 82.52029 -0.70266 -2.87711 11.34674 11.31472 -12.95146 8.57898 -79.32292 -3.25774 2.24486 -3.59069 7.24415 -1.91202 -6.65673 -11.55973 -2.55916 -9.04203 -8.0436 6.53477 18.45218 -1.51157 -5.11821 3.22602 6.36713
0.00132 0.57946 -0.00115 183.12046 0 -5.65233 7.85177 6.16944 -1.78449 -19.70485 2.69143 -0.35331 14.84597 -16.82225 7.62595 8.78016 82.42822 -0.71217 -2.96087 12.51284 11.25246 -13.37799 8.69976 -79.27758 -3.29782 2.33656 -3.49966 7.26247 -1.80996 -6.76785 -11.56135 -2.5683 -9.12366 -8.03849 6.54405 18.50781 -1.50069 -5.15865 3.22506 6.35825
0.0015 0.5795 -0.00135 183.04088 0 -5.65033 7.88119 6.1237 -1.77259 -20.32589 2.76343 -0.28976 15.74665 -16.93441 7.95703 8.87696 82.3495 -0.7209 -3.04391 13.58999 11.17686 -13.77769 8.81476 -79.21741 -3.33605 2.42403 -3.41338 7.27978 -1.69807 -6.87675 -11.56555 -2.58185 -9.21331 -8.04133 6.55016 18.57681 -1.48362 -5.20089 3.22379 6.34189
0.0018 0.57953 -0.00161 182.96503 0 -5.64812 7.89877 6.08447 -1.76146 -21.13757 2.82749 -0.23554 16.8899 -17.03595 8.33053 8.98321 82.24445 -0.73113 -3.13222 14.89045 11.12517 -14.24432 8.94593 -79.18523 -3.38025 2.52451 -3.31418 7.29987 -1.59998 -6.99295 -11.56457 -2.58641 -9.28944 -8.0276 6.56302 18.62313 -1.47973 -5.24042 3.22304 6.34006
0.0024 0.57956 -0.00198 182.90863 0 -5.64624 7.88855 6.0623 -1.75125 -22.44852 2.87028 -0.21454 18.66288 -17.10564 8.79809 9.11 82.0571 -0.74395 -3.22738 16.7682 11.13844 -14.88288 9.11547 -79.23651 -3.43767 2.65458 -3.18484 7.32633 -1.55582 -7.12452 -11.54925 -2.56427 -9.31932 -7.97062 6.59406 18.59872 -1.50837 -5.27203 3.22531 6.37904
0.00311 0.57959 -0.00239 182.8562 0 -5.644 7.86483 6.04701 -1.74222 -23.94706 2.90332 -0.20308 20.67358 -17.16328 9.30649 9.24633 81.84483 -0.75875 -3.32823 18.86397 11.17732 -15.58723 9.30114 -79.31586 -3.50107 2.79761 -3.04237 7.35562 -1.52467 -7.26351 -11.52862 -2.53342 -9.33626 -7.89633 6.63196 18.55141 -1.5511 -5.30067 3.22785 6.43282
0.00378 0.57961 -0.0028 182.7996 0 -5.64143 7.84384 6.0295 -1.73411 -25.36244 2.93651 -0.18542 22.57793 -17.22381 9.79911 9.37981 81.65007 -0.77388 -3.42929 20.86153 11.20848 -16.26298 9.48095 -79.37973 -3.5625 2.93618 -2.90413 7.38406 -1.48059 -7.40065 -11.51032 -2.50786 -9.36353 -7.82823 6.66694 18.51666 -1.59003 -5.33015 3.22906 6.48015
0.00442 0.57964 -0.00316 182.7519 0 -5.64105 7.83875 6.00811 -1.72013 -26.7771 2.98782 -0.17494 24.48568 -17.29538 10.28281 9.50734 81.42955 -0.78359 -3.51885 22.86598 11.22319 -16.93613 9.65519 -79.45387 -3.62092 3.0692 -2.7729 7.41074 -1.46437 -7.53182 -11.49246 -2.4768 -9.37305 -7.76755 6.70104 18.47349 -1.61787 -5.36176 3.23507 6.52635
0.00516 0.57967 -0.00362 182.68723 0 -5.63589 7.79554 5.99643 -1.7182 -28.23083 2.9997 -0.15203 26.43446 -17.34172 10.7936 9.6495 81.25637 -0.80531 -3.63373 24.89954 11.27754 -17.6281 9.84455 -79.51449 -3.68709 3.21674 -2.62402 7.44171 -1.39471 -7.67691 -11.47233 -2.45496 -9.41547 -7.68694 6.73868 18.44219 -1.67228 -5.3884 3.23155 6.57822
0.00614 0.57969 -0.00428 182.5723 0 -5.61854 7.66474 6.01033 -1.75374 -29.79396 2.89697 -0.09238 28.49094 -17.31287 11.37056 9.82816 81.22326 -0.85752 -3.81514 27.01207 11.44329 -18.36962 10.0722 -79.52169 -3.77171 3.40012 -2.43026 7.48401 -1.16426 -7.85977 -11.44796 -2.46246 -9.55958 -7.55819 6.78369 18.44876 -1.79565 -5.40007 3.19797 6.64426
0.00722 0.57971 -0.00504 182.44088 0 -5.59619 7.49306 6.03371 -1.8006 -31.38023 2.75629 -0.01999 30.56944 -17.26046 11.97267 10.02124 81.2381 -0.92209 -4.02194 29.13541 11.6466 -19.12497 10.31419 -79.51598 -3.86407 3.59764 -2.2191 7.53051 -0.88157 -8.05611 -11.42135 -2.47928 -9.73593 -7.40938 6.83219 18.46797 -1.94547 -5.40725 3.15543 6.71506
0.00827 0.57973 -0.00576 182.31855 0 -5.57551 7.33099 6.05245 -1.83932 -32.92474 2.63819 0.04641 32.60317 -17.22432 12.56205 10.2089 81.22873 -0.98253 -4.21857 31.2195 11.82744 -19.86481 10.54936 -79.52243 -3.95397 3.78948 -2.01556 7.57492 -0.62951 -8.2455 -11.39525 -2.49062 -9.8922 -7.26809 6.87951 18.48171 -2.08384 -5.41769 3.11947 6.78241
0.00927 0.57975 -0.00645 182.18899 0 -5.55739 7.20744 6.07277 -1.89058 -34.60917 2.49727 0.1133 34.79393 -17.16444 13.15865 10.39287 81.22842 -1.03707 -4.41041 33.45812 12.03201 -20.64608 10.78695 -79.50373 -4.04006 3.97917 -1.81288 7.62004 -0.3488 -8.43871 -11.37106 -2.50666 -10.07025 -7.13329 6.9252 18.49382 -2.2203 -5.42267 3.07315 6.85599
0.01039 0.57977 -0.00723 182.07132 0 -5.53271 6.99272 6.09204 -1.91856 -36.00345 2.39498 0.18237 36.65737 -17.14837 13.74533 10.5869 81.22131 -1.10641 -4.6172 35.37228 12.19572 -21.34328 11.02196 -79.53341 -4.13529 4.17587 -1.60433 7.66483 -0.11521 -8.62699 -11.34251 -2.51554 -10.21162 -6.98001 6.97521 18.51224 -2.36684 -5.43827 3.04601 6.91716
0.01178 0.57979 -0.00825 181.98429 0 -5.4917 6.54766 6.10549 -1.87832 -36.60319 2.40906 0.25415 37.62865 -17.26144 14.30092 10.81289 81.18073 -1.21705 -4.8675 36.40463 12.23702 -21.80555 11.25231 -79.70498 -4.25843 4.39385 -1.38507 7.70605 -0.02507 -8.79857 -11.30201 -2.49997 -10.2361 -6.78379 7.03466 18.54791 -2.53502 -5.48185 3.07609 6.94586
0.01329 0.57982 -0.00936 181.91131 0 -5.44415 6.00978 6.11768 -1.81469 -36.90601 2.46353 0.32794 38.26442 -17.41939 14.84496 11.04701 81.13241 -1.34149 -5.13032 37.10496 12.23549 -22.18184 11.47825 -79.92479 -4.38958 4.61725 -1.1604 7.74704 0.01548 -8.96442 -11.25744 -2.47734 -10.22383 -6.56889 7.09866 18.58872 -2.71258 -5.53677 3.12532 6.96123
0.01476 0.57984 -0.01044 181.83551 0 -5.3993 5.50756 6.13077 -1.76231 -37.33677 2.49898 0.40078 39.04252 -17.55484 15.39253 11.27229 81.08957 -1.45738 -5.38196 37.9463 12.25416 -22.59736 11.70234 -80.11872 -4.51409 4.83464 -0.93736 7.78924 0.07984 -9.13297 -11.21492 -2.45962 -10.23377 -6.36092 7.16155 18.6258 -2.88526 -5.58808 3.1645 6.98072
0.01618 0.57987 -0.01147 181.74261 0 -5.35557 5.03322 6.14269 -1.70689 -37.80144 2.53491 0.47352 39.86818 -17.69687 15.9484 11.5198 81.03972 -1.5834 -5.65793 38.83343 12.27256 -23.01461 11.94363 -80.32807 -4.65168 5.06778 -0.71691 7.82709 0.14284 -9.30246 -11.17099 -2.43517 -10.22248 -6.16 7.22034 18.67055 -3.06036 -5.63261 3.2093 7.00871
0.01774 0.57989 -0.01263 181.69072 0 -5.30786 4.47705 6.1568 -1.6531 -38.12033 2.58118 0.54766 40.51005 -17.83801 16.48373 11.72272 81.00249 -1.69134 -5.88554 39.54169 12.27898 -23.40529 12.14731 -80.51798 -4.76365 5.26889 -0.49037 7.87367 0.19346 -9.46735 -11.12966 -2.42275 -10.24514 -5.93877 7.28892 18.69867 -3.23371 -5.69415 3.24676 7.01558
